<svg width="136" height="28" viewBox="0 0 136 28" fill="none" xmlns="http://www.w3.org/2000/svg">
<path d="M20.4191 12.371C20.0401 12.7523 19.7499 13.2125 19.569 13.7187C19.3882 14.225 19.3213 14.7649 19.373 15.3L19.355 15.282C19.4082 15.9119 19.3232 16.5457 19.1061 17.1394C18.889 17.733 18.5451 18.2721 18.0982 18.7191C17.6512 19.166 17.112 19.5101 16.5183 19.7271C15.9247 19.9442 15.2908 20.0292 14.661 19.976L14.6791 19.994C13.9257 19.9239 13.1689 20.0878 12.512 20.4635C11.8552 20.8392 11.3302 21.4083 11.0087 22.0933C10.6872 22.7783 10.5847 23.5457 10.7153 24.2911C10.846 25.0364 11.2033 25.7233 11.7386 26.2581C12.2739 26.7929 12.9611 27.1496 13.7065 27.2795C14.452 27.4095 15.2193 27.3063 15.904 26.9842C16.5887 26.662 17.1573 26.1366 17.5324 25.4794C17.9075 24.8222 18.0708 24.0654 18 23.312L18.019 23.33C17.9658 22.7002 18.0507 22.0663 18.2678 21.4726C18.4849 20.879 18.829 20.3399 19.2759 19.8929C19.7229 19.446 20.262 19.1019 20.8556 18.8849C21.4494 18.6678 22.0831 18.5828 22.713 18.636L22.694 18.618C23.3095 18.6733 23.929 18.5724 24.4951 18.3246C25.0611 18.0768 25.5554 17.6901 25.9322 17.2004C26.309 16.7107 26.5562 16.1337 26.6507 15.5231C26.7451 14.9124 26.684 14.2878 26.4727 13.707C26.2615 13.1263 25.9071 12.6083 25.4424 12.201C24.9777 11.7937 24.4178 11.5103 23.8144 11.3771C23.2109 11.2439 22.5837 11.2651 21.9907 11.4388C21.3976 11.6126 20.8582 11.9332 20.4221 12.371H20.4191Z" fill="#B4B7C9"/>
<path d="M13.0422 17.636L13.0232 17.618C13.5585 17.6719 14.0991 17.6062 14.606 17.4256C15.1128 17.245 15.5732 16.9541 15.9538 16.5738C16.3343 16.1935 16.6257 15.7333 16.8066 15.2266C16.9876 14.7199 17.0537 14.1794 17.0002 13.644L17.0192 13.662C16.966 13.0321 17.051 12.3983 17.268 11.8046C17.4851 11.211 17.8292 10.6719 18.2761 10.2249C18.7231 9.778 19.2622 9.4339 19.8558 9.2169C20.4495 8.99976 21.0833 8.91483 21.7132 8.968L21.6942 8.95C22.4477 9.0208 23.2046 8.85736 23.8618 8.4821C24.5191 8.10684 25.0445 7.53797 25.3665 6.8531C25.6885 6.16824 25.7914 5.40071 25.6612 4.6552C25.531 3.90969 25.174 3.22251 24.6388 2.68737C24.1037 2.15224 23.4165 1.7952 22.671 1.66498C21.9255 1.53475 21.158 1.63766 20.4731 1.95968C19.7882 2.28169 19.2194 2.80714 18.8441 3.46435C18.4688 4.12155 18.3054 4.87852 18.3762 5.632L18.3582 5.613C18.4115 6.24289 18.3267 6.87683 18.1097 7.47055C17.8927 8.06427 17.5486 8.60346 17.1017 9.0505C16.6547 9.4974 16.1155 9.8415 15.5218 10.0585C14.928 10.2755 14.2941 10.3603 13.6642 10.307L13.6822 10.326C13.1469 10.2721 12.6062 10.3378 12.0994 10.5184C11.5926 10.6989 11.1322 10.9899 10.7516 11.3702C10.371 11.7505 10.0797 12.2107 9.89865 12.7174C9.71776 13.2241 9.65165 13.7646 9.70515 14.3L9.68715 14.282C9.74016 14.9118 9.65506 15.5456 9.43795 16.1392C9.22075 16.7327 8.87675 17.2718 8.42985 17.7187C7.98291 18.1656 7.44387 18.5096 6.85031 18.7268C6.25675 18.9439 5.62296 19.029 4.99315 18.976L5.01115 18.994C4.25767 18.9232 3.5007 19.0866 2.84349 19.4619C2.18629 19.8372 1.66084 20.406 1.33883 21.0909C1.01681 21.7758 0.913895 22.5433 1.04412 23.2888C1.17435 24.0343 1.53139 24.7215 2.06652 25.2566C2.60166 25.7918 3.28884 26.1488 4.03435 26.279C4.77986 26.4092 5.54739 26.3063 6.23226 25.9843C6.91712 25.6623 7.48599 25.1369 7.86125 24.4797C8.23655 23.8224 8.39995 23.0655 8.32915 22.312L8.34815 22.33C8.29495 21.7001 8.37995 21.0663 8.59705 20.4726C8.81405 19.879 9.15815 19.3399 9.60505 18.8929C10.0521 18.446 10.5912 18.1019 11.1848 17.8849C11.7785 17.6678 12.4123 17.5828 13.0422 17.636Z" fill="#B4B7C9"/>
<path d="M6.34021 15.6289C6.71923 15.2477 7.00941 14.7875 7.19005 14.2812C7.37069 13.7749 7.43733 13.2349 7.38521 12.6999L7.4042 12.7179C7.351 12.0879 7.43596 11.4538 7.65317 10.86C7.87038 10.2662 8.21461 9.72704 8.66181 9.28004C9.10901 8.83306 9.64831 8.48907 10.2422 8.27212C10.8361 8.05516 11.4702 7.97046 12.1002 8.02394L12.0812 8.00594C12.8344 8.07651 13.5911 7.91302 14.248 7.53778C14.9049 7.16255 15.43 6.59382 15.7519 5.90917C16.0737 5.22451 16.1765 4.45726 16.0463 3.71203C15.9161 2.9668 15.5591 2.27988 15.0242 1.74494C14.4893 1.21 13.8023 0.853079 13.0571 0.722859C12.3119 0.592629 11.5446 0.695449 10.86 1.01727C10.1753 1.33909 9.60661 1.86426 9.23141 2.52116C8.85611 3.17806 8.69261 3.93472 8.76321 4.68794L8.74521 4.66994C8.79841 5.29979 8.71341 5.93366 8.49631 6.5273C8.27921 7.12094 7.93523 7.66005 7.48827 8.10701C7.04132 8.55397 6.5022 8.898 5.90856 9.11504C5.31492 9.33214 4.68106 9.41714 4.05121 9.36394L4.06921 9.38194C3.45378 9.32674 2.83437 9.42784 2.26839 9.67574C1.70241 9.92364 1.20816 10.3104 0.831451 10.8002C0.454741 11.2899 0.207761 11.8669 0.113381 12.4775C0.0190114 13.0882 0.0803014 13.7128 0.291571 14.2934C0.502841 14.8741 0.857271 15.392 1.322 15.7992C1.78673 16.2065 2.34673 16.4898 2.95011 16.623C3.55348 16.7561 4.18071 16.7348 4.77368 16.5611C5.36664 16.3873 5.90614 16.0667 6.3422 15.6289H6.34021Z" fill="#B4B7C9"/>
<path d="M37.3174 5.65503H40.2874V20.108H37.3174V5.65503Z" fill="#B4B7C9"/>
<path d="M41.9689 15.1591C41.9648 14.1205 42.269 13.1039 42.843 12.2383C43.417 11.3727 44.235 10.6969 45.1934 10.2966C46.1518 9.8962 47.2074 9.7893 48.2266 9.9894C49.2458 10.1895 50.1827 10.6875 50.9186 11.4205C51.6545 12.1534 52.1563 13.0883 52.3605 14.1067C52.5647 15.1251 52.462 16.1812 52.0655 17.1412C51.669 18.1011 50.9965 18.9219 50.1332 19.4993C49.2698 20.0768 48.2546 20.3851 47.2159 20.3851C46.5265 20.393 45.8424 20.2633 45.2036 20.0037C44.5648 19.7441 43.9842 19.3598 43.4957 18.8733C43.0071 18.3867 42.6205 17.8076 42.3584 17.1699C42.0962 16.5322 41.9638 15.8486 41.9689 15.1591ZM49.4929 15.1591C49.4805 14.7114 49.3364 14.2773 49.0787 13.911C48.8209 13.5448 48.4609 13.2626 48.0437 13.0999C47.6264 12.9371 47.1705 12.9009 46.7328 12.9959C46.2951 13.0909 45.8951 13.3127 45.5828 13.6338C45.2706 13.9548 45.0598 14.3608 44.9771 14.801C44.8943 15.2411 44.943 15.6959 45.1173 16.1085C45.2916 16.5211 45.5836 16.8731 45.9568 17.1206C46.3301 17.3681 46.7681 17.5001 47.2159 17.5001C47.5226 17.5083 47.8277 17.4528 48.112 17.3372C48.3962 17.2216 48.6534 17.0484 48.8673 16.8285C49.0812 16.6085 49.2473 16.3466 49.3549 16.0593C49.4626 15.772 49.5096 15.4655 49.4929 15.1591Z" fill="#B4B7C9"/>
<path d="M64.2999 10.2091V19.6091C64.2999 22.9351 61.7059 24.3411 59.0729 24.3411C58.1459 24.4105 57.2176 24.2232 56.3899 23.7999C55.5623 23.3765 54.8672 22.7334 54.3809 21.9411L56.9149 20.4761C57.1193 20.8891 57.445 21.2298 57.8483 21.4527C58.2517 21.6755 58.7135 21.7699 59.1719 21.7231C59.4649 21.7637 59.7633 21.7379 60.045 21.6476C60.3266 21.5573 60.5844 21.4048 60.7992 21.2015C61.014 20.9981 61.1803 20.7491 61.2859 20.4727C61.3914 20.1964 61.4334 19.8999 61.4089 19.6051V18.7001C61.0611 19.1256 60.6185 19.4637 60.1164 19.6872C59.6143 19.9107 59.0669 20.0134 58.5179 19.9871C57.2117 19.9459 55.9728 19.3981 55.0634 18.4595C54.154 17.521 53.6455 16.2654 53.6455 14.9586C53.6455 13.6518 54.154 12.3962 55.0634 11.4577C55.9728 10.5191 57.2117 9.97126 58.5179 9.93006C59.0669 9.90376 59.6143 10.0065 60.1164 10.23C60.6185 10.4535 61.0611 10.7916 61.4089 11.2171V10.2071L64.2999 10.2091ZM61.4099 14.9601C61.4299 14.4815 61.3061 14.0078 61.0546 13.6001C60.8031 13.1923 60.4353 12.8692 59.9986 12.6723C59.5619 12.4753 59.0763 12.4136 58.6042 12.495C58.1321 12.5764 57.6952 12.7972 57.3496 13.1291C57.0041 13.4609 56.7658 13.8885 56.6653 14.3569C56.5649 14.8253 56.6069 15.3131 56.7861 15.7574C56.9652 16.2017 57.2732 16.5823 57.6704 16.8501C58.0676 17.1179 58.5359 17.2607 59.0149 17.2601C59.327 17.2819 59.6401 17.2381 59.9342 17.1315C60.2283 17.0249 60.4968 16.8578 60.7224 16.6412C60.948 16.4245 61.1258 16.163 61.2442 15.8734C61.3626 15.5839 61.4191 15.2728 61.4099 14.9601Z" fill="#B4B7C9"/>
<path d="M65.9816 15.1591C65.9775 14.1205 66.2816 13.1039 66.8557 12.2383C67.4297 11.3727 68.2477 10.6969 69.2061 10.2966C70.1645 9.8962 71.2201 9.7893 72.2393 9.9894C73.2585 10.1895 74.1954 10.6875 74.9313 11.4205C75.6672 12.1534 76.169 13.0883 76.3732 14.1067C76.5774 15.1251 76.4747 16.1812 76.0782 17.1412C75.6817 18.1011 75.0092 18.9219 74.1459 19.4993C73.2825 20.0768 72.2673 20.3851 71.2286 20.3851C70.5392 20.393 69.855 20.2633 69.2163 20.0037C68.5775 19.7441 67.9969 19.3598 67.5084 18.8733C67.0198 18.3867 66.6332 17.8076 66.3711 17.1699C66.1089 16.5322 65.9765 15.8486 65.9816 15.1591ZM73.5056 15.1591C73.4932 14.7114 73.3491 14.2773 73.0914 13.911C72.8336 13.5448 72.4736 13.2626 72.0564 13.0999C71.6391 12.9371 71.1831 12.9009 70.7455 12.9959C70.3078 13.0909 69.9078 13.3127 69.5955 13.6338C69.2833 13.9548 69.0725 14.3608 68.9897 14.801C68.9069 15.2411 68.9557 15.6959 69.13 16.1085C69.3043 16.5211 69.5963 16.8731 69.9695 17.1206C70.3428 17.3681 70.7807 17.5001 71.2286 17.5001C71.5353 17.5083 71.8404 17.4528 72.1246 17.3372C72.4089 17.2216 72.6661 17.0484 72.88 16.8285C73.0939 16.6085 73.26 16.3466 73.3676 16.0593C73.4753 15.772 73.5223 15.4655 73.5056 15.1591Z" fill="#B4B7C9"/>
<path d="M77.8613 7.55593C77.8613 7.20348 77.9658 6.85895 78.1616 6.56591C78.3574 6.27286 78.6358 6.04445 78.9614 5.90958C79.287 5.7747 79.6453 5.73941 79.991 5.80817C80.3366 5.87693 80.6542 6.04665 80.9034 6.29587C81.1526 6.54508 81.3223 6.8626 81.3911 7.20828C81.4598 7.55395 81.4245 7.91225 81.2897 8.23787C81.1548 8.56349 80.9264 8.8418 80.6333 9.03763C80.3403 9.23343 79.9958 9.33793 79.6433 9.33793C79.1722 9.33323 78.7216 9.14403 78.3884 8.81081C78.0553 8.47763 77.866 8.02709 77.8613 7.55593ZM78.1613 10.2089H81.1323V20.1089H78.1573L78.1613 10.2089Z" fill="#B4B7C9"/>
<path d="M93.9557 15.159C93.99 15.8133 93.8947 16.4679 93.6751 17.0852C93.4556 17.7025 93.1162 18.2703 92.6764 18.756C92.2367 19.2416 91.7052 19.6356 91.1127 19.9152C90.5201 20.1947 89.8782 20.3544 89.2237 20.385C88.6733 20.415 88.1232 20.3222 87.6131 20.1133C87.103 19.9043 86.6459 19.5845 86.2747 19.177V24.068H83.3047V10.209H86.2747V11.139C86.646 10.7318 87.1033 10.4122 87.6133 10.2035C88.1234 9.99473 88.6734 9.90203 89.2237 9.93203C89.8783 9.96253 90.5204 10.1221 91.1131 10.4017C91.7058 10.6813 92.2373 11.0753 92.6771 11.5611C93.1169 12.0469 93.4563 12.6149 93.6757 13.2324C93.8951 13.8498 93.9903 14.5046 93.9557 15.159ZM90.9857 15.159C90.9741 14.6957 90.8261 14.2461 90.5602 13.8664C90.2943 13.4868 89.9224 13.194 89.491 13.0248C89.0595 12.8555 88.5877 12.8172 88.1346 12.9148C87.6815 13.0123 87.2673 13.2413 86.9437 13.5731C86.6201 13.905 86.4016 14.3248 86.3155 14.7803C86.2294 15.2357 86.2795 15.7063 86.4596 16.1334C86.6396 16.5605 86.9417 16.9249 87.3279 17.1812C87.7141 17.4374 88.1672 17.5741 88.6307 17.574C88.9489 17.5882 89.2665 17.5349 89.5627 17.4177C89.8588 17.3006 90.1269 17.1221 90.3492 16.8941C90.5716 16.666 90.7432 16.3936 90.8529 16.0946C90.9626 15.7956 91.0079 15.4767 90.9857 15.159Z" fill="#B4B7C9"/>
<path d="M103.121 17.1381C103.121 19.4151 101.142 20.3851 99.0041 20.3851C98.1401 20.4633 97.2728 20.2807 96.5139 19.8606C95.755 19.4406 95.1396 18.8026 94.7471 18.0291L97.3201 16.5641C97.4242 16.9216 97.6478 17.2327 97.9535 17.4452C98.2591 17.6578 98.6291 17.7591 99.0001 17.7321C99.7121 17.7321 100.069 17.5141 100.069 17.1191C100.069 16.0291 95.1981 16.6041 95.1981 13.1791C95.1981 11.0201 97.0201 9.9321 99.0791 9.9321C99.8531 9.9076 100.619 10.0912 101.298 10.4637C101.977 10.8363 102.544 11.3841 102.939 12.0501L100.405 13.4161C100.294 13.1568 100.109 12.9359 99.8731 12.781C99.6371 12.6261 99.3611 12.5441 99.0791 12.5451C98.5641 12.5451 98.2471 12.7451 98.2471 13.0991C98.2511 14.2281 103.121 13.4751 103.121 17.1381Z" fill="#B4B7C9"/>
<path d="M113.97 10.209V20.109H111V19.178C110.657 19.5888 110.222 19.9125 109.73 20.1225C109.238 20.3325 108.704 20.4228 108.17 20.386C106.17 20.386 104.47 18.961 104.47 16.286V10.209H107.44V15.851C107.415 16.0868 107.442 16.3252 107.519 16.5495C107.595 16.7739 107.72 16.9789 107.884 17.1502C108.048 17.3215 108.247 17.455 108.468 17.5415C108.688 17.628 108.925 17.6654 109.162 17.651C110.251 17.651 111.003 17.018 111.003 15.612V10.212L113.97 10.209Z" fill="#B4B7C9"/>
<path d="M131 14.03V20.108H128.03V14.287C128.03 13.297 127.555 12.664 126.605 12.664C125.615 12.664 125.06 13.357 125.06 14.525V20.108H122.091V14.287C122.091 13.297 121.616 12.664 120.665 12.664C119.675 12.664 119.121 13.357 119.121 14.525V20.108H116.151V10.208H119.121V11.118C119.429 10.7143 119.833 10.3941 120.296 10.1868C120.76 9.97938 121.268 9.89148 121.774 9.93098C122.282 9.90608 122.788 10.0134 123.243 10.2423C123.697 10.4711 124.084 10.8139 124.367 11.237C124.696 10.7943 125.132 10.4423 125.634 10.2139C126.136 9.98548 126.688 9.88818 127.238 9.93098C129.511 9.93198 131 11.555 131 14.03Z" fill="#B4B7C9"/>
<path d="M133.512 10.148C134.729 10.148 135.716 9.16119 135.716 7.94399C135.716 6.72675 134.729 5.73999 133.512 5.73999C132.295 5.73999 131.308 6.72675 131.308 7.94399C131.308 9.16119 132.295 10.148 133.512 10.148Z" fill="#B4B7C9"/>
</svg>
